<mxfile host="app.diagrams.net" modified="2024-05-22T03:23:50.740Z" agent="Mozilla/5.0 (Windows NT 10.0; Win64; x64) AppleWebKit/537.36 (KHTML, like Gecko) Chrome/124.0.0.0 Safari/537.36" etag="Rvg2rMpCoCVVVBkwOmjr" version="24.4.4" type="device">
  <diagram name="Page-1" id="cUQYSgZPTDPqk1lPid-_">
    <mxGraphModel dx="139" dy="532" grid="1" gridSize="10" guides="1" tooltips="1" connect="1" arrows="1" fold="1" page="1" pageScale="1" pageWidth="850" pageHeight="1100" math="0" shadow="0">
      <root>
        <mxCell id="0" />
        <mxCell id="1" parent="0" />
        <mxCell id="Y5F9X7biOGbYKgVgGVMg-1" value="&lt;font style=&quot;font-size: 11px;&quot;&gt;&amp;nbsp; &amp;nbsp; &amp;nbsp; &amp;nbsp; Exec. Stage 1&lt;/font&gt;" style="rounded=1;whiteSpace=wrap;html=1;shadow=0;labelBackgroundColor=none;strokeColor=default;strokeWidth=1;fillColor=#2F5B7C;fontFamily=Comic Sans MS;fontSize=11;fontColor=#FFFFFF;align=center;fontStyle=0;spacing=5;arcSize=7;perimeterSpacing=2;" vertex="1" parent="1">
          <mxGeometry x="999" y="81" width="160" height="20" as="geometry" />
        </mxCell>
        <mxCell id="Y5F9X7biOGbYKgVgGVMg-10" value="&lt;b&gt;&lt;sup style=&quot;&quot;&gt;&lt;font style=&quot;font-size: 11px;&quot;&gt;&amp;nbsp; &amp;nbsp; Output Policy Stage&lt;/font&gt;&lt;/sup&gt;&lt;/b&gt;" style="html=1;whiteSpace=wrap;container=1;recursiveResize=0;collapsible=0;fillColor=#429fe0;strokeColor=#000000;fontColor=#ffffff;fontFamily=Comic Sans MS;" vertex="1" parent="1">
          <mxGeometry x="999" y="321" width="160" height="20" as="geometry" />
        </mxCell>
        <mxCell id="Y5F9X7biOGbYKgVgGVMg-11" value="" style="triangle;html=1;whiteSpace=wrap;strokeColor=#005700;fillColor=#008a00;fontColor=#ffffff;" vertex="1" parent="Y5F9X7biOGbYKgVgGVMg-10">
          <mxGeometry x="12" y="5" width="20" height="30" as="geometry" />
        </mxCell>
        <mxCell id="Y5F9X7biOGbYKgVgGVMg-13" value="&amp;nbsp; &amp;nbsp; &amp;nbsp; &amp;nbsp;&amp;nbsp;&lt;span style=&quot;font-size: 11px;&quot;&gt;Exec. Stage 2&lt;/span&gt;" style="rounded=1;whiteSpace=wrap;html=1;shadow=0;labelBackgroundColor=none;strokeColor=default;strokeWidth=1;fillColor=#2F5B7C;fontFamily=Comic Sans MS;fontSize=11;fontColor=#FFFFFF;align=center;fontStyle=0;spacing=5;arcSize=7;perimeterSpacing=2;" vertex="1" parent="1">
          <mxGeometry x="999" y="101" width="160" height="20" as="geometry" />
        </mxCell>
        <mxCell id="Y5F9X7biOGbYKgVgGVMg-14" value="&amp;nbsp; &amp;nbsp; &amp;nbsp; &amp;nbsp;&amp;nbsp;&lt;span style=&quot;font-size: 11px;&quot;&gt;Exec. Stage 3&lt;/span&gt;" style="rounded=1;whiteSpace=wrap;html=1;shadow=0;labelBackgroundColor=none;strokeColor=default;strokeWidth=1;fillColor=#2F5B7C;fontFamily=Comic Sans MS;fontSize=11;fontColor=#FFFFFF;align=center;fontStyle=0;spacing=5;arcSize=7;perimeterSpacing=2;" vertex="1" parent="1">
          <mxGeometry x="999" y="121" width="160" height="20" as="geometry" />
        </mxCell>
        <mxCell id="Y5F9X7biOGbYKgVgGVMg-15" value="&amp;nbsp; &amp;nbsp; &amp;nbsp; &amp;nbsp;&amp;nbsp;&lt;span style=&quot;font-size: 11px;&quot;&gt;Exec. Stage 4&lt;/span&gt;" style="rounded=1;whiteSpace=wrap;html=1;shadow=0;labelBackgroundColor=none;strokeColor=default;strokeWidth=1;fillColor=#2F5B7C;fontFamily=Comic Sans MS;fontSize=11;fontColor=#FFFFFF;align=center;fontStyle=0;spacing=5;arcSize=7;perimeterSpacing=2;" vertex="1" parent="1">
          <mxGeometry x="999" y="141" width="160" height="20" as="geometry" />
        </mxCell>
        <mxCell id="Y5F9X7biOGbYKgVgGVMg-16" value="&amp;nbsp; &amp;nbsp; &amp;nbsp; &amp;nbsp;&amp;nbsp;&lt;span style=&quot;font-size: 11px;&quot;&gt;Exec. Stage 5&lt;/span&gt;" style="rounded=1;whiteSpace=wrap;html=1;shadow=0;labelBackgroundColor=none;strokeColor=default;strokeWidth=1;fillColor=#2F5B7C;fontFamily=Comic Sans MS;fontSize=11;fontColor=#FFFFFF;align=center;fontStyle=0;spacing=5;arcSize=7;perimeterSpacing=2;" vertex="1" parent="1">
          <mxGeometry x="999" y="161" width="160" height="20" as="geometry" />
        </mxCell>
        <mxCell id="Y5F9X7biOGbYKgVgGVMg-17" value="&amp;nbsp; &amp;nbsp; &amp;nbsp; &amp;nbsp;&amp;nbsp;&lt;span style=&quot;font-size: 11px;&quot;&gt;Exec. Stage 6&lt;/span&gt;" style="rounded=1;whiteSpace=wrap;html=1;shadow=0;labelBackgroundColor=none;strokeColor=default;strokeWidth=1;fillColor=#2F5B7C;fontFamily=Comic Sans MS;fontSize=11;fontColor=#FFFFFF;align=center;fontStyle=0;spacing=5;arcSize=7;perimeterSpacing=2;" vertex="1" parent="1">
          <mxGeometry x="999" y="181" width="160" height="20" as="geometry" />
        </mxCell>
        <mxCell id="Y5F9X7biOGbYKgVgGVMg-18" value="&amp;nbsp; &amp;nbsp; &amp;nbsp; &amp;nbsp;&amp;nbsp;&lt;span style=&quot;font-size: 11px;&quot;&gt;Exec. Stage 7&lt;/span&gt;" style="rounded=1;whiteSpace=wrap;html=1;shadow=0;labelBackgroundColor=none;strokeColor=default;strokeWidth=1;fillColor=#2F5B7C;fontFamily=Comic Sans MS;fontSize=11;fontColor=#FFFFFF;align=center;fontStyle=0;spacing=5;arcSize=7;perimeterSpacing=2;" vertex="1" parent="1">
          <mxGeometry x="999" y="201" width="160" height="20" as="geometry" />
        </mxCell>
        <mxCell id="Y5F9X7biOGbYKgVgGVMg-19" value="&amp;nbsp; &amp;nbsp; &amp;nbsp; &amp;nbsp;&amp;nbsp;&lt;span style=&quot;font-size: 11px;&quot;&gt;Exec. Stage 8&lt;/span&gt;" style="rounded=1;whiteSpace=wrap;html=1;shadow=0;labelBackgroundColor=none;strokeColor=default;strokeWidth=1;fillColor=#2F5B7C;fontFamily=Comic Sans MS;fontSize=11;fontColor=#FFFFFF;align=center;fontStyle=0;spacing=5;arcSize=7;perimeterSpacing=2;" vertex="1" parent="1">
          <mxGeometry x="999" y="221" width="160" height="20" as="geometry" />
        </mxCell>
        <mxCell id="Y5F9X7biOGbYKgVgGVMg-20" value="&amp;nbsp; &amp;nbsp; &amp;nbsp; &amp;nbsp;&amp;nbsp;&lt;span style=&quot;font-size: 11px;&quot;&gt;Exec. Stage 9&lt;/span&gt;" style="rounded=1;whiteSpace=wrap;html=1;shadow=0;labelBackgroundColor=none;strokeColor=default;strokeWidth=1;fillColor=#2F5B7C;fontFamily=Comic Sans MS;fontSize=11;fontColor=#FFFFFF;align=center;fontStyle=0;spacing=5;arcSize=7;perimeterSpacing=2;" vertex="1" parent="1">
          <mxGeometry x="999" y="241" width="160" height="20" as="geometry" />
        </mxCell>
        <mxCell id="Y5F9X7biOGbYKgVgGVMg-21" value="&amp;nbsp; &amp;nbsp; &amp;nbsp; &amp;nbsp;&amp;nbsp;&lt;span style=&quot;font-size: 11px;&quot;&gt;Exec. Stage 10&lt;/span&gt;" style="rounded=1;whiteSpace=wrap;html=1;shadow=0;labelBackgroundColor=none;strokeColor=default;strokeWidth=1;fillColor=#2F5B7C;fontFamily=Comic Sans MS;fontSize=11;fontColor=#FFFFFF;align=center;fontStyle=0;spacing=5;arcSize=7;perimeterSpacing=2;" vertex="1" parent="1">
          <mxGeometry x="999" y="261" width="160" height="20" as="geometry" />
        </mxCell>
        <mxCell id="Y5F9X7biOGbYKgVgGVMg-22" value="&amp;nbsp; &amp;nbsp; &amp;nbsp; &amp;nbsp;&amp;nbsp;&lt;span style=&quot;font-size: 11px;&quot;&gt;Exec. Stage 11&lt;/span&gt;" style="rounded=1;whiteSpace=wrap;html=1;shadow=0;labelBackgroundColor=none;strokeColor=default;strokeWidth=1;fillColor=#2F5B7C;fontFamily=Comic Sans MS;fontSize=11;fontColor=#FFFFFF;align=center;fontStyle=0;spacing=5;arcSize=7;perimeterSpacing=2;" vertex="1" parent="1">
          <mxGeometry x="999" y="281" width="160" height="20" as="geometry" />
        </mxCell>
        <mxCell id="Y5F9X7biOGbYKgVgGVMg-23" value="&amp;nbsp; &amp;nbsp; &amp;nbsp; &amp;nbsp;&amp;nbsp;&lt;span style=&quot;font-size: 11px;&quot;&gt;Exec. Stage 12&lt;/span&gt;" style="rounded=1;whiteSpace=wrap;html=1;shadow=0;labelBackgroundColor=none;strokeColor=default;strokeWidth=1;fillColor=#2F5B7C;fontFamily=Comic Sans MS;fontSize=11;fontColor=#FFFFFF;align=center;fontStyle=0;spacing=5;arcSize=7;perimeterSpacing=2;" vertex="1" parent="1">
          <mxGeometry x="999" y="301" width="160" height="20" as="geometry" />
        </mxCell>
        <mxCell id="Y5F9X7biOGbYKgVgGVMg-24" value="" style="shape=table;startSize=0;container=1;collapsible=0;childLayout=tableLayout;fontSize=16;strokeColor=default;" vertex="1" parent="1">
          <mxGeometry x="1159" y="81" width="70" height="240" as="geometry" />
        </mxCell>
        <mxCell id="Y5F9X7biOGbYKgVgGVMg-25" value="" style="shape=tableRow;horizontal=0;startSize=0;swimlaneHead=0;swimlaneBody=0;strokeColor=default;top=0;left=0;bottom=0;right=0;collapsible=0;dropTarget=0;fillColor=none;points=[[0,0.5],[1,0.5]];portConstraint=eastwest;fontSize=16;" vertex="1" parent="Y5F9X7biOGbYKgVgGVMg-24">
          <mxGeometry width="70" height="20" as="geometry" />
        </mxCell>
        <mxCell id="Y5F9X7biOGbYKgVgGVMg-26" value="" style="shape=partialRectangle;html=1;whiteSpace=wrap;connectable=0;strokeColor=default;overflow=hidden;fillColor=none;top=0;left=0;bottom=0;right=0;pointerEvents=1;fontSize=16;" vertex="1" parent="Y5F9X7biOGbYKgVgGVMg-25">
          <mxGeometry width="24" height="20" as="geometry">
            <mxRectangle width="24" height="20" as="alternateBounds" />
          </mxGeometry>
        </mxCell>
        <mxCell id="Y5F9X7biOGbYKgVgGVMg-27" value="" style="shape=partialRectangle;html=1;whiteSpace=wrap;connectable=0;strokeColor=default;overflow=hidden;fillColor=none;top=0;left=0;bottom=0;right=0;pointerEvents=1;fontSize=16;" vertex="1" parent="Y5F9X7biOGbYKgVgGVMg-25">
          <mxGeometry x="24" width="22" height="20" as="geometry">
            <mxRectangle width="22" height="20" as="alternateBounds" />
          </mxGeometry>
        </mxCell>
        <mxCell id="Y5F9X7biOGbYKgVgGVMg-28" value="" style="shape=partialRectangle;html=1;whiteSpace=wrap;connectable=0;strokeColor=default;overflow=hidden;fillColor=none;top=0;left=0;bottom=0;right=0;pointerEvents=1;fontSize=16;" vertex="1" parent="Y5F9X7biOGbYKgVgGVMg-25">
          <mxGeometry x="46" width="24" height="20" as="geometry">
            <mxRectangle width="24" height="20" as="alternateBounds" />
          </mxGeometry>
        </mxCell>
        <mxCell id="Y5F9X7biOGbYKgVgGVMg-65" value="" style="shape=tableRow;horizontal=0;startSize=0;swimlaneHead=0;swimlaneBody=0;strokeColor=default;top=0;left=0;bottom=0;right=0;collapsible=0;dropTarget=0;fillColor=none;points=[[0,0.5],[1,0.5]];portConstraint=eastwest;fontSize=16;" vertex="1" parent="Y5F9X7biOGbYKgVgGVMg-24">
          <mxGeometry y="20" width="70" height="20" as="geometry" />
        </mxCell>
        <mxCell id="Y5F9X7biOGbYKgVgGVMg-66" value="" style="shape=partialRectangle;html=1;whiteSpace=wrap;connectable=0;strokeColor=default;overflow=hidden;fillColor=none;top=0;left=0;bottom=0;right=0;pointerEvents=1;fontSize=16;" vertex="1" parent="Y5F9X7biOGbYKgVgGVMg-65">
          <mxGeometry width="24" height="20" as="geometry">
            <mxRectangle width="24" height="20" as="alternateBounds" />
          </mxGeometry>
        </mxCell>
        <mxCell id="Y5F9X7biOGbYKgVgGVMg-67" value="" style="shape=partialRectangle;html=1;whiteSpace=wrap;connectable=0;strokeColor=default;overflow=hidden;fillColor=none;top=0;left=0;bottom=0;right=0;pointerEvents=1;fontSize=16;" vertex="1" parent="Y5F9X7biOGbYKgVgGVMg-65">
          <mxGeometry x="24" width="22" height="20" as="geometry">
            <mxRectangle width="22" height="20" as="alternateBounds" />
          </mxGeometry>
        </mxCell>
        <mxCell id="Y5F9X7biOGbYKgVgGVMg-68" value="" style="shape=partialRectangle;html=1;whiteSpace=wrap;connectable=0;strokeColor=default;overflow=hidden;fillColor=none;top=0;left=0;bottom=0;right=0;pointerEvents=1;fontSize=16;" vertex="1" parent="Y5F9X7biOGbYKgVgGVMg-65">
          <mxGeometry x="46" width="24" height="20" as="geometry">
            <mxRectangle width="24" height="20" as="alternateBounds" />
          </mxGeometry>
        </mxCell>
        <mxCell id="Y5F9X7biOGbYKgVgGVMg-49" value="" style="shape=tableRow;horizontal=0;startSize=0;swimlaneHead=0;swimlaneBody=0;strokeColor=default;top=0;left=0;bottom=0;right=0;collapsible=0;dropTarget=0;fillColor=none;points=[[0,0.5],[1,0.5]];portConstraint=eastwest;fontSize=16;" vertex="1" parent="Y5F9X7biOGbYKgVgGVMg-24">
          <mxGeometry y="40" width="70" height="20" as="geometry" />
        </mxCell>
        <mxCell id="Y5F9X7biOGbYKgVgGVMg-50" value="" style="shape=partialRectangle;html=1;whiteSpace=wrap;connectable=0;strokeColor=default;overflow=hidden;fillColor=none;top=0;left=0;bottom=0;right=0;pointerEvents=1;fontSize=16;" vertex="1" parent="Y5F9X7biOGbYKgVgGVMg-49">
          <mxGeometry width="24" height="20" as="geometry">
            <mxRectangle width="24" height="20" as="alternateBounds" />
          </mxGeometry>
        </mxCell>
        <mxCell id="Y5F9X7biOGbYKgVgGVMg-51" value="" style="shape=partialRectangle;html=1;whiteSpace=wrap;connectable=0;strokeColor=default;overflow=hidden;fillColor=none;top=0;left=0;bottom=0;right=0;pointerEvents=1;fontSize=16;" vertex="1" parent="Y5F9X7biOGbYKgVgGVMg-49">
          <mxGeometry x="24" width="22" height="20" as="geometry">
            <mxRectangle width="22" height="20" as="alternateBounds" />
          </mxGeometry>
        </mxCell>
        <mxCell id="Y5F9X7biOGbYKgVgGVMg-52" value="" style="shape=partialRectangle;html=1;whiteSpace=wrap;connectable=0;strokeColor=default;overflow=hidden;fillColor=none;top=0;left=0;bottom=0;right=0;pointerEvents=1;fontSize=16;" vertex="1" parent="Y5F9X7biOGbYKgVgGVMg-49">
          <mxGeometry x="46" width="24" height="20" as="geometry">
            <mxRectangle width="24" height="20" as="alternateBounds" />
          </mxGeometry>
        </mxCell>
        <mxCell id="Y5F9X7biOGbYKgVgGVMg-61" value="" style="shape=tableRow;horizontal=0;startSize=0;swimlaneHead=0;swimlaneBody=0;strokeColor=default;top=0;left=0;bottom=0;right=0;collapsible=0;dropTarget=0;fillColor=none;points=[[0,0.5],[1,0.5]];portConstraint=eastwest;fontSize=16;" vertex="1" parent="Y5F9X7biOGbYKgVgGVMg-24">
          <mxGeometry y="60" width="70" height="20" as="geometry" />
        </mxCell>
        <mxCell id="Y5F9X7biOGbYKgVgGVMg-62" value="" style="shape=partialRectangle;html=1;whiteSpace=wrap;connectable=0;strokeColor=default;overflow=hidden;fillColor=none;top=0;left=0;bottom=0;right=0;pointerEvents=1;fontSize=16;" vertex="1" parent="Y5F9X7biOGbYKgVgGVMg-61">
          <mxGeometry width="24" height="20" as="geometry">
            <mxRectangle width="24" height="20" as="alternateBounds" />
          </mxGeometry>
        </mxCell>
        <mxCell id="Y5F9X7biOGbYKgVgGVMg-63" value="" style="shape=partialRectangle;html=1;whiteSpace=wrap;connectable=0;strokeColor=default;overflow=hidden;fillColor=none;top=0;left=0;bottom=0;right=0;pointerEvents=1;fontSize=16;" vertex="1" parent="Y5F9X7biOGbYKgVgGVMg-61">
          <mxGeometry x="24" width="22" height="20" as="geometry">
            <mxRectangle width="22" height="20" as="alternateBounds" />
          </mxGeometry>
        </mxCell>
        <mxCell id="Y5F9X7biOGbYKgVgGVMg-64" value="" style="shape=partialRectangle;html=1;whiteSpace=wrap;connectable=0;strokeColor=default;overflow=hidden;fillColor=none;top=0;left=0;bottom=0;right=0;pointerEvents=1;fontSize=16;" vertex="1" parent="Y5F9X7biOGbYKgVgGVMg-61">
          <mxGeometry x="46" width="24" height="20" as="geometry">
            <mxRectangle width="24" height="20" as="alternateBounds" />
          </mxGeometry>
        </mxCell>
        <mxCell id="Y5F9X7biOGbYKgVgGVMg-69" value="" style="shape=tableRow;horizontal=0;startSize=0;swimlaneHead=0;swimlaneBody=0;strokeColor=default;top=0;left=0;bottom=0;right=0;collapsible=0;dropTarget=0;fillColor=none;points=[[0,0.5],[1,0.5]];portConstraint=eastwest;fontSize=16;" vertex="1" parent="Y5F9X7biOGbYKgVgGVMg-24">
          <mxGeometry y="80" width="70" height="20" as="geometry" />
        </mxCell>
        <mxCell id="Y5F9X7biOGbYKgVgGVMg-70" value="" style="shape=partialRectangle;html=1;whiteSpace=wrap;connectable=0;strokeColor=default;overflow=hidden;fillColor=none;top=0;left=0;bottom=0;right=0;pointerEvents=1;fontSize=16;" vertex="1" parent="Y5F9X7biOGbYKgVgGVMg-69">
          <mxGeometry width="24" height="20" as="geometry">
            <mxRectangle width="24" height="20" as="alternateBounds" />
          </mxGeometry>
        </mxCell>
        <mxCell id="Y5F9X7biOGbYKgVgGVMg-71" value="" style="shape=partialRectangle;html=1;whiteSpace=wrap;connectable=0;strokeColor=default;overflow=hidden;fillColor=none;top=0;left=0;bottom=0;right=0;pointerEvents=1;fontSize=16;" vertex="1" parent="Y5F9X7biOGbYKgVgGVMg-69">
          <mxGeometry x="24" width="22" height="20" as="geometry">
            <mxRectangle width="22" height="20" as="alternateBounds" />
          </mxGeometry>
        </mxCell>
        <mxCell id="Y5F9X7biOGbYKgVgGVMg-72" value="" style="shape=partialRectangle;html=1;whiteSpace=wrap;connectable=0;strokeColor=default;overflow=hidden;fillColor=none;top=0;left=0;bottom=0;right=0;pointerEvents=1;fontSize=16;" vertex="1" parent="Y5F9X7biOGbYKgVgGVMg-69">
          <mxGeometry x="46" width="24" height="20" as="geometry">
            <mxRectangle width="24" height="20" as="alternateBounds" />
          </mxGeometry>
        </mxCell>
        <mxCell id="Y5F9X7biOGbYKgVgGVMg-57" value="" style="shape=tableRow;horizontal=0;startSize=0;swimlaneHead=0;swimlaneBody=0;strokeColor=default;top=0;left=0;bottom=0;right=0;collapsible=0;dropTarget=0;fillColor=none;points=[[0,0.5],[1,0.5]];portConstraint=eastwest;fontSize=16;" vertex="1" parent="Y5F9X7biOGbYKgVgGVMg-24">
          <mxGeometry y="100" width="70" height="20" as="geometry" />
        </mxCell>
        <mxCell id="Y5F9X7biOGbYKgVgGVMg-58" value="" style="shape=partialRectangle;html=1;whiteSpace=wrap;connectable=0;strokeColor=default;overflow=hidden;fillColor=none;top=0;left=0;bottom=0;right=0;pointerEvents=1;fontSize=16;" vertex="1" parent="Y5F9X7biOGbYKgVgGVMg-57">
          <mxGeometry width="24" height="20" as="geometry">
            <mxRectangle width="24" height="20" as="alternateBounds" />
          </mxGeometry>
        </mxCell>
        <mxCell id="Y5F9X7biOGbYKgVgGVMg-59" value="" style="shape=partialRectangle;html=1;whiteSpace=wrap;connectable=0;strokeColor=default;overflow=hidden;fillColor=none;top=0;left=0;bottom=0;right=0;pointerEvents=1;fontSize=16;" vertex="1" parent="Y5F9X7biOGbYKgVgGVMg-57">
          <mxGeometry x="24" width="22" height="20" as="geometry">
            <mxRectangle width="22" height="20" as="alternateBounds" />
          </mxGeometry>
        </mxCell>
        <mxCell id="Y5F9X7biOGbYKgVgGVMg-60" value="" style="shape=partialRectangle;html=1;whiteSpace=wrap;connectable=0;strokeColor=default;overflow=hidden;fillColor=none;top=0;left=0;bottom=0;right=0;pointerEvents=1;fontSize=16;" vertex="1" parent="Y5F9X7biOGbYKgVgGVMg-57">
          <mxGeometry x="46" width="24" height="20" as="geometry">
            <mxRectangle width="24" height="20" as="alternateBounds" />
          </mxGeometry>
        </mxCell>
        <mxCell id="Y5F9X7biOGbYKgVgGVMg-53" value="" style="shape=tableRow;horizontal=0;startSize=0;swimlaneHead=0;swimlaneBody=0;strokeColor=default;top=0;left=0;bottom=0;right=0;collapsible=0;dropTarget=0;fillColor=none;points=[[0,0.5],[1,0.5]];portConstraint=eastwest;fontSize=16;" vertex="1" parent="Y5F9X7biOGbYKgVgGVMg-24">
          <mxGeometry y="120" width="70" height="20" as="geometry" />
        </mxCell>
        <mxCell id="Y5F9X7biOGbYKgVgGVMg-54" value="" style="shape=partialRectangle;html=1;whiteSpace=wrap;connectable=0;strokeColor=default;overflow=hidden;fillColor=none;top=0;left=0;bottom=0;right=0;pointerEvents=1;fontSize=16;" vertex="1" parent="Y5F9X7biOGbYKgVgGVMg-53">
          <mxGeometry width="24" height="20" as="geometry">
            <mxRectangle width="24" height="20" as="alternateBounds" />
          </mxGeometry>
        </mxCell>
        <mxCell id="Y5F9X7biOGbYKgVgGVMg-55" value="" style="shape=partialRectangle;html=1;whiteSpace=wrap;connectable=0;strokeColor=default;overflow=hidden;fillColor=none;top=0;left=0;bottom=0;right=0;pointerEvents=1;fontSize=16;" vertex="1" parent="Y5F9X7biOGbYKgVgGVMg-53">
          <mxGeometry x="24" width="22" height="20" as="geometry">
            <mxRectangle width="22" height="20" as="alternateBounds" />
          </mxGeometry>
        </mxCell>
        <mxCell id="Y5F9X7biOGbYKgVgGVMg-56" value="" style="shape=partialRectangle;html=1;whiteSpace=wrap;connectable=0;strokeColor=default;overflow=hidden;fillColor=none;top=0;left=0;bottom=0;right=0;pointerEvents=1;fontSize=16;" vertex="1" parent="Y5F9X7biOGbYKgVgGVMg-53">
          <mxGeometry x="46" width="24" height="20" as="geometry">
            <mxRectangle width="24" height="20" as="alternateBounds" />
          </mxGeometry>
        </mxCell>
        <mxCell id="Y5F9X7biOGbYKgVgGVMg-45" value="" style="shape=tableRow;horizontal=0;startSize=0;swimlaneHead=0;swimlaneBody=0;strokeColor=default;top=0;left=0;bottom=0;right=0;collapsible=0;dropTarget=0;fillColor=none;points=[[0,0.5],[1,0.5]];portConstraint=eastwest;fontSize=16;" vertex="1" parent="Y5F9X7biOGbYKgVgGVMg-24">
          <mxGeometry y="140" width="70" height="20" as="geometry" />
        </mxCell>
        <mxCell id="Y5F9X7biOGbYKgVgGVMg-46" value="" style="shape=partialRectangle;html=1;whiteSpace=wrap;connectable=0;strokeColor=default;overflow=hidden;fillColor=none;top=0;left=0;bottom=0;right=0;pointerEvents=1;fontSize=16;" vertex="1" parent="Y5F9X7biOGbYKgVgGVMg-45">
          <mxGeometry width="24" height="20" as="geometry">
            <mxRectangle width="24" height="20" as="alternateBounds" />
          </mxGeometry>
        </mxCell>
        <mxCell id="Y5F9X7biOGbYKgVgGVMg-47" value="" style="shape=partialRectangle;html=1;whiteSpace=wrap;connectable=0;strokeColor=default;overflow=hidden;fillColor=none;top=0;left=0;bottom=0;right=0;pointerEvents=1;fontSize=16;" vertex="1" parent="Y5F9X7biOGbYKgVgGVMg-45">
          <mxGeometry x="24" width="22" height="20" as="geometry">
            <mxRectangle width="22" height="20" as="alternateBounds" />
          </mxGeometry>
        </mxCell>
        <mxCell id="Y5F9X7biOGbYKgVgGVMg-48" value="" style="shape=partialRectangle;html=1;whiteSpace=wrap;connectable=0;strokeColor=default;overflow=hidden;fillColor=none;top=0;left=0;bottom=0;right=0;pointerEvents=1;fontSize=16;" vertex="1" parent="Y5F9X7biOGbYKgVgGVMg-45">
          <mxGeometry x="46" width="24" height="20" as="geometry">
            <mxRectangle width="24" height="20" as="alternateBounds" />
          </mxGeometry>
        </mxCell>
        <mxCell id="Y5F9X7biOGbYKgVgGVMg-41" value="" style="shape=tableRow;horizontal=0;startSize=0;swimlaneHead=0;swimlaneBody=0;strokeColor=default;top=0;left=0;bottom=0;right=0;collapsible=0;dropTarget=0;fillColor=none;points=[[0,0.5],[1,0.5]];portConstraint=eastwest;fontSize=16;" vertex="1" parent="Y5F9X7biOGbYKgVgGVMg-24">
          <mxGeometry y="160" width="70" height="20" as="geometry" />
        </mxCell>
        <mxCell id="Y5F9X7biOGbYKgVgGVMg-42" value="" style="shape=partialRectangle;html=1;whiteSpace=wrap;connectable=0;strokeColor=default;overflow=hidden;fillColor=none;top=0;left=0;bottom=0;right=0;pointerEvents=1;fontSize=16;" vertex="1" parent="Y5F9X7biOGbYKgVgGVMg-41">
          <mxGeometry width="24" height="20" as="geometry">
            <mxRectangle width="24" height="20" as="alternateBounds" />
          </mxGeometry>
        </mxCell>
        <mxCell id="Y5F9X7biOGbYKgVgGVMg-43" value="" style="shape=partialRectangle;html=1;whiteSpace=wrap;connectable=0;strokeColor=default;overflow=hidden;fillColor=none;top=0;left=0;bottom=0;right=0;pointerEvents=1;fontSize=16;" vertex="1" parent="Y5F9X7biOGbYKgVgGVMg-41">
          <mxGeometry x="24" width="22" height="20" as="geometry">
            <mxRectangle width="22" height="20" as="alternateBounds" />
          </mxGeometry>
        </mxCell>
        <mxCell id="Y5F9X7biOGbYKgVgGVMg-44" value="" style="shape=partialRectangle;html=1;whiteSpace=wrap;connectable=0;strokeColor=default;overflow=hidden;fillColor=none;top=0;left=0;bottom=0;right=0;pointerEvents=1;fontSize=16;" vertex="1" parent="Y5F9X7biOGbYKgVgGVMg-41">
          <mxGeometry x="46" width="24" height="20" as="geometry">
            <mxRectangle width="24" height="20" as="alternateBounds" />
          </mxGeometry>
        </mxCell>
        <mxCell id="Y5F9X7biOGbYKgVgGVMg-37" value="" style="shape=tableRow;horizontal=0;startSize=0;swimlaneHead=0;swimlaneBody=0;strokeColor=default;top=0;left=0;bottom=0;right=0;collapsible=0;dropTarget=0;fillColor=none;points=[[0,0.5],[1,0.5]];portConstraint=eastwest;fontSize=16;" vertex="1" parent="Y5F9X7biOGbYKgVgGVMg-24">
          <mxGeometry y="180" width="70" height="20" as="geometry" />
        </mxCell>
        <mxCell id="Y5F9X7biOGbYKgVgGVMg-38" value="" style="shape=partialRectangle;html=1;whiteSpace=wrap;connectable=0;strokeColor=default;overflow=hidden;fillColor=none;top=0;left=0;bottom=0;right=0;pointerEvents=1;fontSize=16;" vertex="1" parent="Y5F9X7biOGbYKgVgGVMg-37">
          <mxGeometry width="24" height="20" as="geometry">
            <mxRectangle width="24" height="20" as="alternateBounds" />
          </mxGeometry>
        </mxCell>
        <mxCell id="Y5F9X7biOGbYKgVgGVMg-39" value="" style="shape=partialRectangle;html=1;whiteSpace=wrap;connectable=0;strokeColor=default;overflow=hidden;fillColor=none;top=0;left=0;bottom=0;right=0;pointerEvents=1;fontSize=16;" vertex="1" parent="Y5F9X7biOGbYKgVgGVMg-37">
          <mxGeometry x="24" width="22" height="20" as="geometry">
            <mxRectangle width="22" height="20" as="alternateBounds" />
          </mxGeometry>
        </mxCell>
        <mxCell id="Y5F9X7biOGbYKgVgGVMg-40" value="" style="shape=partialRectangle;html=1;whiteSpace=wrap;connectable=0;strokeColor=default;overflow=hidden;fillColor=none;top=0;left=0;bottom=0;right=0;pointerEvents=1;fontSize=16;" vertex="1" parent="Y5F9X7biOGbYKgVgGVMg-37">
          <mxGeometry x="46" width="24" height="20" as="geometry">
            <mxRectangle width="24" height="20" as="alternateBounds" />
          </mxGeometry>
        </mxCell>
        <mxCell id="Y5F9X7biOGbYKgVgGVMg-29" value="" style="shape=tableRow;horizontal=0;startSize=0;swimlaneHead=0;swimlaneBody=0;strokeColor=default;top=0;left=0;bottom=0;right=0;collapsible=0;dropTarget=0;fillColor=none;points=[[0,0.5],[1,0.5]];portConstraint=eastwest;fontSize=16;" vertex="1" parent="Y5F9X7biOGbYKgVgGVMg-24">
          <mxGeometry y="200" width="70" height="20" as="geometry" />
        </mxCell>
        <mxCell id="Y5F9X7biOGbYKgVgGVMg-30" value="" style="shape=partialRectangle;html=1;whiteSpace=wrap;connectable=0;strokeColor=default;overflow=hidden;fillColor=none;top=0;left=0;bottom=0;right=0;pointerEvents=1;fontSize=16;" vertex="1" parent="Y5F9X7biOGbYKgVgGVMg-29">
          <mxGeometry width="24" height="20" as="geometry">
            <mxRectangle width="24" height="20" as="alternateBounds" />
          </mxGeometry>
        </mxCell>
        <mxCell id="Y5F9X7biOGbYKgVgGVMg-31" value="" style="shape=partialRectangle;html=1;whiteSpace=wrap;connectable=0;strokeColor=default;overflow=hidden;fillColor=none;top=0;left=0;bottom=0;right=0;pointerEvents=1;fontSize=16;" vertex="1" parent="Y5F9X7biOGbYKgVgGVMg-29">
          <mxGeometry x="24" width="22" height="20" as="geometry">
            <mxRectangle width="22" height="20" as="alternateBounds" />
          </mxGeometry>
        </mxCell>
        <mxCell id="Y5F9X7biOGbYKgVgGVMg-32" value="" style="shape=partialRectangle;html=1;whiteSpace=wrap;connectable=0;strokeColor=default;overflow=hidden;fillColor=none;top=0;left=0;bottom=0;right=0;pointerEvents=1;fontSize=16;" vertex="1" parent="Y5F9X7biOGbYKgVgGVMg-29">
          <mxGeometry x="46" width="24" height="20" as="geometry">
            <mxRectangle width="24" height="20" as="alternateBounds" />
          </mxGeometry>
        </mxCell>
        <mxCell id="Y5F9X7biOGbYKgVgGVMg-33" value="" style="shape=tableRow;horizontal=0;startSize=0;swimlaneHead=0;swimlaneBody=0;strokeColor=default;top=0;left=0;bottom=0;right=0;collapsible=0;dropTarget=0;fillColor=none;points=[[0,0.5],[1,0.5]];portConstraint=eastwest;fontSize=16;" vertex="1" parent="Y5F9X7biOGbYKgVgGVMg-24">
          <mxGeometry y="220" width="70" height="20" as="geometry" />
        </mxCell>
        <mxCell id="Y5F9X7biOGbYKgVgGVMg-34" value="" style="shape=partialRectangle;html=1;whiteSpace=wrap;connectable=0;strokeColor=default;overflow=hidden;fillColor=none;top=0;left=0;bottom=0;right=0;pointerEvents=1;fontSize=16;" vertex="1" parent="Y5F9X7biOGbYKgVgGVMg-33">
          <mxGeometry width="24" height="20" as="geometry">
            <mxRectangle width="24" height="20" as="alternateBounds" />
          </mxGeometry>
        </mxCell>
        <mxCell id="Y5F9X7biOGbYKgVgGVMg-35" value="" style="shape=partialRectangle;html=1;whiteSpace=wrap;connectable=0;strokeColor=default;overflow=hidden;fillColor=none;top=0;left=0;bottom=0;right=0;pointerEvents=1;fontSize=16;" vertex="1" parent="Y5F9X7biOGbYKgVgGVMg-33">
          <mxGeometry x="24" width="22" height="20" as="geometry">
            <mxRectangle width="22" height="20" as="alternateBounds" />
          </mxGeometry>
        </mxCell>
        <mxCell id="Y5F9X7biOGbYKgVgGVMg-36" value="" style="shape=partialRectangle;html=1;whiteSpace=wrap;connectable=0;strokeColor=default;overflow=hidden;fillColor=none;top=0;left=0;bottom=0;right=0;pointerEvents=1;fontSize=16;" vertex="1" parent="Y5F9X7biOGbYKgVgGVMg-33">
          <mxGeometry x="46" width="24" height="20" as="geometry">
            <mxRectangle width="24" height="20" as="alternateBounds" />
          </mxGeometry>
        </mxCell>
        <mxCell id="Y5F9X7biOGbYKgVgGVMg-73" value="" style="endArrow=classic;html=1;rounded=0;" edge="1" parent="1">
          <mxGeometry width="50" height="50" relative="1" as="geometry">
            <mxPoint x="1172" y="49" as="sourcePoint" />
            <mxPoint x="1172" y="79" as="targetPoint" />
          </mxGeometry>
        </mxCell>
        <mxCell id="Y5F9X7biOGbYKgVgGVMg-74" value="" style="endArrow=classic;html=1;rounded=0;" edge="1" parent="1">
          <mxGeometry width="50" height="50" relative="1" as="geometry">
            <mxPoint x="1217" y="49" as="sourcePoint" />
            <mxPoint x="1217" y="79" as="targetPoint" />
          </mxGeometry>
        </mxCell>
        <mxCell id="Y5F9X7biOGbYKgVgGVMg-75" value="" style="endArrow=classic;html=1;rounded=0;" edge="1" parent="1">
          <mxGeometry width="50" height="50" relative="1" as="geometry">
            <mxPoint x="1194" y="49" as="sourcePoint" />
            <mxPoint x="1194" y="79" as="targetPoint" />
          </mxGeometry>
        </mxCell>
        <mxCell id="Y5F9X7biOGbYKgVgGVMg-76" value="Input Pins" style="text;html=1;align=center;verticalAlign=middle;whiteSpace=wrap;rounded=0;fontStyle=1" vertex="1" parent="1">
          <mxGeometry x="1164" width="60" height="30" as="geometry" />
        </mxCell>
        <mxCell id="Y5F9X7biOGbYKgVgGVMg-82" value="" style="endArrow=classic;html=1;rounded=0;" edge="1" parent="1">
          <mxGeometry width="50" height="50" relative="1" as="geometry">
            <mxPoint x="1171.16" y="337" as="sourcePoint" />
            <mxPoint x="1171.16" y="367" as="targetPoint" />
          </mxGeometry>
        </mxCell>
        <mxCell id="Y5F9X7biOGbYKgVgGVMg-83" value="" style="endArrow=classic;html=1;rounded=0;" edge="1" parent="1">
          <mxGeometry width="50" height="50" relative="1" as="geometry">
            <mxPoint x="1218.16" y="337" as="sourcePoint" />
            <mxPoint x="1218.16" y="367" as="targetPoint" />
          </mxGeometry>
        </mxCell>
        <mxCell id="Y5F9X7biOGbYKgVgGVMg-84" value="" style="endArrow=classic;html=1;rounded=0;" edge="1" parent="1">
          <mxGeometry width="50" height="50" relative="1" as="geometry">
            <mxPoint x="1195.16" y="337" as="sourcePoint" />
            <mxPoint x="1195.16" y="367" as="targetPoint" />
          </mxGeometry>
        </mxCell>
        <mxCell id="Y5F9X7biOGbYKgVgGVMg-85" value="Output Pins" style="text;html=1;align=center;verticalAlign=middle;whiteSpace=wrap;rounded=0;fontStyle=1" vertex="1" parent="1">
          <mxGeometry x="1159" y="373" width="70" height="30" as="geometry" />
        </mxCell>
        <mxCell id="Y5F9X7biOGbYKgVgGVMg-86" value="" style="ellipse;html=1;shape=endState;fillColor=#000000;strokeColor=#ff0000;" vertex="1" parent="1">
          <mxGeometry x="1165" y="327" width="12" height="12" as="geometry" />
        </mxCell>
        <mxCell id="Y5F9X7biOGbYKgVgGVMg-87" value="" style="ellipse;html=1;shape=endState;fillColor=#000000;strokeColor=#ff0000;" vertex="1" parent="1">
          <mxGeometry x="1189" y="327" width="12" height="12" as="geometry" />
        </mxCell>
        <mxCell id="Y5F9X7biOGbYKgVgGVMg-88" value="" style="ellipse;html=1;shape=endState;fillColor=#000000;strokeColor=#ff0000;" vertex="1" parent="1">
          <mxGeometry x="1212" y="327" width="12" height="12" as="geometry" />
        </mxCell>
        <mxCell id="Y5F9X7biOGbYKgVgGVMg-682" style="edgeStyle=orthogonalEdgeStyle;rounded=0;orthogonalLoop=1;jettySize=auto;html=1;exitX=0;exitY=0;exitDx=0;exitDy=15;exitPerimeter=0;endArrow=oval;endFill=1;entryX=0.346;entryY=1.015;entryDx=0;entryDy=0;entryPerimeter=0;" edge="1" parent="1" source="Y5F9X7biOGbYKgVgGVMg-90" target="Y5F9X7biOGbYKgVgGVMg-684">
          <mxGeometry relative="1" as="geometry">
            <mxPoint x="888" y="61" as="targetPoint" />
          </mxGeometry>
        </mxCell>
        <mxCell id="Y5F9X7biOGbYKgVgGVMg-683" style="edgeStyle=orthogonalEdgeStyle;rounded=0;orthogonalLoop=1;jettySize=auto;html=1;exitX=0;exitY=0;exitDx=0;exitDy=35;exitPerimeter=0;endArrow=oval;endFill=1;entryX=0.5;entryY=1;entryDx=0;entryDy=0;" edge="1" parent="1" source="Y5F9X7biOGbYKgVgGVMg-90" target="Y5F9X7biOGbYKgVgGVMg-685">
          <mxGeometry relative="1" as="geometry">
            <mxPoint x="878" y="61" as="targetPoint" />
            <Array as="points">
              <mxPoint x="870" y="116" />
            </Array>
          </mxGeometry>
        </mxCell>
        <mxCell id="Y5F9X7biOGbYKgVgGVMg-90" value="" style="shape=module;align=left;spacingLeft=20;align=center;verticalAlign=top;whiteSpace=wrap;html=1;" vertex="1" parent="1">
          <mxGeometry x="899" y="81" width="100" height="260" as="geometry" />
        </mxCell>
        <mxCell id="Y5F9X7biOGbYKgVgGVMg-578" value="" style="shape=table;startSize=0;container=1;collapsible=0;childLayout=tableLayout;" vertex="1" parent="1">
          <mxGeometry x="928" y="61" width="98" height="260" as="geometry" />
        </mxCell>
        <mxCell id="Y5F9X7biOGbYKgVgGVMg-579" value="" style="shape=tableRow;horizontal=0;startSize=0;swimlaneHead=0;swimlaneBody=0;strokeColor=inherit;top=0;left=0;bottom=0;right=0;collapsible=0;dropTarget=0;fillColor=none;points=[[0,0.5],[1,0.5]];portConstraint=eastwest;" vertex="1" parent="Y5F9X7biOGbYKgVgGVMg-578">
          <mxGeometry width="98" height="20" as="geometry" />
        </mxCell>
        <mxCell id="Y5F9X7biOGbYKgVgGVMg-580" value="&lt;font face=&quot;Comic Sans MS&quot; size=&quot;1&quot; style=&quot;&quot;&gt;&lt;b style=&quot;font-size: 7px;&quot;&gt;Type&lt;/b&gt;&lt;/font&gt;" style="shape=partialRectangle;html=1;whiteSpace=wrap;connectable=0;strokeColor=inherit;overflow=hidden;fillColor=none;top=0;left=0;bottom=0;right=0;pointerEvents=1;fontSize=8;" vertex="1" parent="Y5F9X7biOGbYKgVgGVMg-579">
          <mxGeometry width="26" height="20" as="geometry">
            <mxRectangle width="26" height="20" as="alternateBounds" />
          </mxGeometry>
        </mxCell>
        <mxCell id="Y5F9X7biOGbYKgVgGVMg-581" value="&lt;font face=&quot;Comic Sans MS&quot; size=&quot;1&quot; style=&quot;&quot;&gt;&lt;b style=&quot;font-size: 7px;&quot;&gt;Len&lt;/b&gt;&lt;/font&gt;" style="shape=partialRectangle;html=1;whiteSpace=wrap;connectable=0;strokeColor=inherit;overflow=hidden;fillColor=none;top=0;left=0;bottom=0;right=0;pointerEvents=1;" vertex="1" parent="Y5F9X7biOGbYKgVgGVMg-579">
          <mxGeometry x="26" width="23" height="20" as="geometry">
            <mxRectangle width="23" height="20" as="alternateBounds" />
          </mxGeometry>
        </mxCell>
        <mxCell id="Y5F9X7biOGbYKgVgGVMg-582" value="&lt;font face=&quot;Comic Sans MS&quot; size=&quot;1&quot; style=&quot;&quot;&gt;&lt;b style=&quot;font-size: 5.9px;&quot;&gt;VarType&lt;/b&gt;&lt;/font&gt;" style="shape=partialRectangle;html=1;whiteSpace=wrap;connectable=0;strokeColor=inherit;overflow=hidden;fillColor=none;top=0;left=0;bottom=0;right=0;pointerEvents=1;" vertex="1" parent="Y5F9X7biOGbYKgVgGVMg-579">
          <mxGeometry x="49" width="26" height="20" as="geometry">
            <mxRectangle width="26" height="20" as="alternateBounds" />
          </mxGeometry>
        </mxCell>
        <mxCell id="Y5F9X7biOGbYKgVgGVMg-583" value="&lt;font face=&quot;Comic Sans MS&quot; size=&quot;1&quot; style=&quot;&quot;&gt;&lt;b style=&quot;font-size: 7px;&quot;&gt;Value&lt;/b&gt;&lt;/font&gt;" style="shape=partialRectangle;html=1;whiteSpace=wrap;connectable=0;strokeColor=inherit;overflow=hidden;fillColor=none;top=0;left=0;bottom=0;right=0;pointerEvents=1;" vertex="1" parent="Y5F9X7biOGbYKgVgGVMg-579">
          <mxGeometry x="75" width="23" height="20" as="geometry">
            <mxRectangle width="23" height="20" as="alternateBounds" />
          </mxGeometry>
        </mxCell>
        <mxCell id="Y5F9X7biOGbYKgVgGVMg-584" value="" style="shape=tableRow;horizontal=0;startSize=0;swimlaneHead=0;swimlaneBody=0;strokeColor=inherit;top=0;left=0;bottom=0;right=0;collapsible=0;dropTarget=0;fillColor=none;points=[[0,0.5],[1,0.5]];portConstraint=eastwest;" vertex="1" parent="Y5F9X7biOGbYKgVgGVMg-578">
          <mxGeometry y="20" width="98" height="19" as="geometry" />
        </mxCell>
        <mxCell id="Y5F9X7biOGbYKgVgGVMg-585" value="" style="shape=partialRectangle;html=1;whiteSpace=wrap;connectable=0;strokeColor=inherit;overflow=hidden;fillColor=none;top=0;left=0;bottom=0;right=0;pointerEvents=1;" vertex="1" parent="Y5F9X7biOGbYKgVgGVMg-584">
          <mxGeometry width="26" height="19" as="geometry">
            <mxRectangle width="26" height="19" as="alternateBounds" />
          </mxGeometry>
        </mxCell>
        <mxCell id="Y5F9X7biOGbYKgVgGVMg-586" value="" style="shape=partialRectangle;html=1;whiteSpace=wrap;connectable=0;strokeColor=inherit;overflow=hidden;fillColor=none;top=0;left=0;bottom=0;right=0;pointerEvents=1;" vertex="1" parent="Y5F9X7biOGbYKgVgGVMg-584">
          <mxGeometry x="26" width="23" height="19" as="geometry">
            <mxRectangle width="23" height="19" as="alternateBounds" />
          </mxGeometry>
        </mxCell>
        <mxCell id="Y5F9X7biOGbYKgVgGVMg-587" value="" style="shape=partialRectangle;html=1;whiteSpace=wrap;connectable=0;strokeColor=inherit;overflow=hidden;fillColor=none;top=0;left=0;bottom=0;right=0;pointerEvents=1;" vertex="1" parent="Y5F9X7biOGbYKgVgGVMg-584">
          <mxGeometry x="49" width="26" height="19" as="geometry">
            <mxRectangle width="26" height="19" as="alternateBounds" />
          </mxGeometry>
        </mxCell>
        <mxCell id="Y5F9X7biOGbYKgVgGVMg-588" value="" style="shape=partialRectangle;html=1;whiteSpace=wrap;connectable=0;strokeColor=inherit;overflow=hidden;fillColor=none;top=0;left=0;bottom=0;right=0;pointerEvents=1;" vertex="1" parent="Y5F9X7biOGbYKgVgGVMg-584">
          <mxGeometry x="75" width="23" height="19" as="geometry">
            <mxRectangle width="23" height="19" as="alternateBounds" />
          </mxGeometry>
        </mxCell>
        <mxCell id="Y5F9X7biOGbYKgVgGVMg-589" value="" style="shape=tableRow;horizontal=0;startSize=0;swimlaneHead=0;swimlaneBody=0;strokeColor=inherit;top=0;left=0;bottom=0;right=0;collapsible=0;dropTarget=0;fillColor=none;points=[[0,0.5],[1,0.5]];portConstraint=eastwest;" vertex="1" parent="Y5F9X7biOGbYKgVgGVMg-578">
          <mxGeometry y="39" width="98" height="20" as="geometry" />
        </mxCell>
        <mxCell id="Y5F9X7biOGbYKgVgGVMg-590" value="" style="shape=partialRectangle;html=1;whiteSpace=wrap;connectable=0;strokeColor=inherit;overflow=hidden;fillColor=none;top=0;left=0;bottom=0;right=0;pointerEvents=1;" vertex="1" parent="Y5F9X7biOGbYKgVgGVMg-589">
          <mxGeometry width="26" height="20" as="geometry">
            <mxRectangle width="26" height="20" as="alternateBounds" />
          </mxGeometry>
        </mxCell>
        <mxCell id="Y5F9X7biOGbYKgVgGVMg-591" value="" style="shape=partialRectangle;html=1;whiteSpace=wrap;connectable=0;strokeColor=inherit;overflow=hidden;fillColor=none;top=0;left=0;bottom=0;right=0;pointerEvents=1;" vertex="1" parent="Y5F9X7biOGbYKgVgGVMg-589">
          <mxGeometry x="26" width="23" height="20" as="geometry">
            <mxRectangle width="23" height="20" as="alternateBounds" />
          </mxGeometry>
        </mxCell>
        <mxCell id="Y5F9X7biOGbYKgVgGVMg-592" value="" style="shape=partialRectangle;html=1;whiteSpace=wrap;connectable=0;strokeColor=inherit;overflow=hidden;fillColor=none;top=0;left=0;bottom=0;right=0;pointerEvents=1;" vertex="1" parent="Y5F9X7biOGbYKgVgGVMg-589">
          <mxGeometry x="49" width="26" height="20" as="geometry">
            <mxRectangle width="26" height="20" as="alternateBounds" />
          </mxGeometry>
        </mxCell>
        <mxCell id="Y5F9X7biOGbYKgVgGVMg-593" value="" style="shape=partialRectangle;html=1;whiteSpace=wrap;connectable=0;strokeColor=inherit;overflow=hidden;fillColor=none;top=0;left=0;bottom=0;right=0;pointerEvents=1;" vertex="1" parent="Y5F9X7biOGbYKgVgGVMg-589">
          <mxGeometry x="75" width="23" height="20" as="geometry">
            <mxRectangle width="23" height="20" as="alternateBounds" />
          </mxGeometry>
        </mxCell>
        <mxCell id="Y5F9X7biOGbYKgVgGVMg-594" value="" style="shape=tableRow;horizontal=0;startSize=0;swimlaneHead=0;swimlaneBody=0;strokeColor=inherit;top=0;left=0;bottom=0;right=0;collapsible=0;dropTarget=0;fillColor=none;points=[[0,0.5],[1,0.5]];portConstraint=eastwest;" vertex="1" parent="Y5F9X7biOGbYKgVgGVMg-578">
          <mxGeometry y="59" width="98" height="21" as="geometry" />
        </mxCell>
        <mxCell id="Y5F9X7biOGbYKgVgGVMg-595" value="" style="shape=partialRectangle;html=1;whiteSpace=wrap;connectable=0;strokeColor=inherit;overflow=hidden;fillColor=none;top=0;left=0;bottom=0;right=0;pointerEvents=1;" vertex="1" parent="Y5F9X7biOGbYKgVgGVMg-594">
          <mxGeometry width="26" height="21" as="geometry">
            <mxRectangle width="26" height="21" as="alternateBounds" />
          </mxGeometry>
        </mxCell>
        <mxCell id="Y5F9X7biOGbYKgVgGVMg-596" value="" style="shape=partialRectangle;html=1;whiteSpace=wrap;connectable=0;strokeColor=inherit;overflow=hidden;fillColor=none;top=0;left=0;bottom=0;right=0;pointerEvents=1;" vertex="1" parent="Y5F9X7biOGbYKgVgGVMg-594">
          <mxGeometry x="26" width="23" height="21" as="geometry">
            <mxRectangle width="23" height="21" as="alternateBounds" />
          </mxGeometry>
        </mxCell>
        <mxCell id="Y5F9X7biOGbYKgVgGVMg-597" value="" style="shape=partialRectangle;html=1;whiteSpace=wrap;connectable=0;strokeColor=inherit;overflow=hidden;fillColor=none;top=0;left=0;bottom=0;right=0;pointerEvents=1;" vertex="1" parent="Y5F9X7biOGbYKgVgGVMg-594">
          <mxGeometry x="49" width="26" height="21" as="geometry">
            <mxRectangle width="26" height="21" as="alternateBounds" />
          </mxGeometry>
        </mxCell>
        <mxCell id="Y5F9X7biOGbYKgVgGVMg-598" value="" style="shape=partialRectangle;html=1;whiteSpace=wrap;connectable=0;strokeColor=inherit;overflow=hidden;fillColor=none;top=0;left=0;bottom=0;right=0;pointerEvents=1;" vertex="1" parent="Y5F9X7biOGbYKgVgGVMg-594">
          <mxGeometry x="75" width="23" height="21" as="geometry">
            <mxRectangle width="23" height="21" as="alternateBounds" />
          </mxGeometry>
        </mxCell>
        <mxCell id="Y5F9X7biOGbYKgVgGVMg-599" value="" style="shape=tableRow;horizontal=0;startSize=0;swimlaneHead=0;swimlaneBody=0;strokeColor=inherit;top=0;left=0;bottom=0;right=0;collapsible=0;dropTarget=0;fillColor=none;points=[[0,0.5],[1,0.5]];portConstraint=eastwest;" vertex="1" parent="Y5F9X7biOGbYKgVgGVMg-578">
          <mxGeometry y="80" width="98" height="19" as="geometry" />
        </mxCell>
        <mxCell id="Y5F9X7biOGbYKgVgGVMg-600" value="" style="shape=partialRectangle;html=1;whiteSpace=wrap;connectable=0;strokeColor=inherit;overflow=hidden;fillColor=none;top=0;left=0;bottom=0;right=0;pointerEvents=1;" vertex="1" parent="Y5F9X7biOGbYKgVgGVMg-599">
          <mxGeometry width="26" height="19" as="geometry">
            <mxRectangle width="26" height="19" as="alternateBounds" />
          </mxGeometry>
        </mxCell>
        <mxCell id="Y5F9X7biOGbYKgVgGVMg-601" value="" style="shape=partialRectangle;html=1;whiteSpace=wrap;connectable=0;strokeColor=inherit;overflow=hidden;fillColor=none;top=0;left=0;bottom=0;right=0;pointerEvents=1;" vertex="1" parent="Y5F9X7biOGbYKgVgGVMg-599">
          <mxGeometry x="26" width="23" height="19" as="geometry">
            <mxRectangle width="23" height="19" as="alternateBounds" />
          </mxGeometry>
        </mxCell>
        <mxCell id="Y5F9X7biOGbYKgVgGVMg-602" value="" style="shape=partialRectangle;html=1;whiteSpace=wrap;connectable=0;strokeColor=inherit;overflow=hidden;fillColor=none;top=0;left=0;bottom=0;right=0;pointerEvents=1;" vertex="1" parent="Y5F9X7biOGbYKgVgGVMg-599">
          <mxGeometry x="49" width="26" height="19" as="geometry">
            <mxRectangle width="26" height="19" as="alternateBounds" />
          </mxGeometry>
        </mxCell>
        <mxCell id="Y5F9X7biOGbYKgVgGVMg-603" value="" style="shape=partialRectangle;html=1;whiteSpace=wrap;connectable=0;strokeColor=inherit;overflow=hidden;fillColor=none;top=0;left=0;bottom=0;right=0;pointerEvents=1;" vertex="1" parent="Y5F9X7biOGbYKgVgGVMg-599">
          <mxGeometry x="75" width="23" height="19" as="geometry">
            <mxRectangle width="23" height="19" as="alternateBounds" />
          </mxGeometry>
        </mxCell>
        <mxCell id="Y5F9X7biOGbYKgVgGVMg-604" value="" style="shape=tableRow;horizontal=0;startSize=0;swimlaneHead=0;swimlaneBody=0;strokeColor=inherit;top=0;left=0;bottom=0;right=0;collapsible=0;dropTarget=0;fillColor=none;points=[[0,0.5],[1,0.5]];portConstraint=eastwest;" vertex="1" parent="Y5F9X7biOGbYKgVgGVMg-578">
          <mxGeometry y="99" width="98" height="20" as="geometry" />
        </mxCell>
        <mxCell id="Y5F9X7biOGbYKgVgGVMg-605" value="" style="shape=partialRectangle;html=1;whiteSpace=wrap;connectable=0;strokeColor=inherit;overflow=hidden;fillColor=none;top=0;left=0;bottom=0;right=0;pointerEvents=1;" vertex="1" parent="Y5F9X7biOGbYKgVgGVMg-604">
          <mxGeometry width="26" height="20" as="geometry">
            <mxRectangle width="26" height="20" as="alternateBounds" />
          </mxGeometry>
        </mxCell>
        <mxCell id="Y5F9X7biOGbYKgVgGVMg-606" value="" style="shape=partialRectangle;html=1;whiteSpace=wrap;connectable=0;strokeColor=inherit;overflow=hidden;fillColor=none;top=0;left=0;bottom=0;right=0;pointerEvents=1;" vertex="1" parent="Y5F9X7biOGbYKgVgGVMg-604">
          <mxGeometry x="26" width="23" height="20" as="geometry">
            <mxRectangle width="23" height="20" as="alternateBounds" />
          </mxGeometry>
        </mxCell>
        <mxCell id="Y5F9X7biOGbYKgVgGVMg-607" value="" style="shape=partialRectangle;html=1;whiteSpace=wrap;connectable=0;strokeColor=inherit;overflow=hidden;fillColor=none;top=0;left=0;bottom=0;right=0;pointerEvents=1;" vertex="1" parent="Y5F9X7biOGbYKgVgGVMg-604">
          <mxGeometry x="49" width="26" height="20" as="geometry">
            <mxRectangle width="26" height="20" as="alternateBounds" />
          </mxGeometry>
        </mxCell>
        <mxCell id="Y5F9X7biOGbYKgVgGVMg-608" value="" style="shape=partialRectangle;html=1;whiteSpace=wrap;connectable=0;strokeColor=inherit;overflow=hidden;fillColor=none;top=0;left=0;bottom=0;right=0;pointerEvents=1;" vertex="1" parent="Y5F9X7biOGbYKgVgGVMg-604">
          <mxGeometry x="75" width="23" height="20" as="geometry">
            <mxRectangle width="23" height="20" as="alternateBounds" />
          </mxGeometry>
        </mxCell>
        <mxCell id="Y5F9X7biOGbYKgVgGVMg-609" value="" style="shape=tableRow;horizontal=0;startSize=0;swimlaneHead=0;swimlaneBody=0;strokeColor=inherit;top=0;left=0;bottom=0;right=0;collapsible=0;dropTarget=0;fillColor=none;points=[[0,0.5],[1,0.5]];portConstraint=eastwest;" vertex="1" parent="Y5F9X7biOGbYKgVgGVMg-578">
          <mxGeometry y="119" width="98" height="22" as="geometry" />
        </mxCell>
        <mxCell id="Y5F9X7biOGbYKgVgGVMg-610" value="" style="shape=partialRectangle;html=1;whiteSpace=wrap;connectable=0;strokeColor=inherit;overflow=hidden;fillColor=none;top=0;left=0;bottom=0;right=0;pointerEvents=1;" vertex="1" parent="Y5F9X7biOGbYKgVgGVMg-609">
          <mxGeometry width="26" height="22" as="geometry">
            <mxRectangle width="26" height="22" as="alternateBounds" />
          </mxGeometry>
        </mxCell>
        <mxCell id="Y5F9X7biOGbYKgVgGVMg-611" value="" style="shape=partialRectangle;html=1;whiteSpace=wrap;connectable=0;strokeColor=inherit;overflow=hidden;fillColor=none;top=0;left=0;bottom=0;right=0;pointerEvents=1;" vertex="1" parent="Y5F9X7biOGbYKgVgGVMg-609">
          <mxGeometry x="26" width="23" height="22" as="geometry">
            <mxRectangle width="23" height="22" as="alternateBounds" />
          </mxGeometry>
        </mxCell>
        <mxCell id="Y5F9X7biOGbYKgVgGVMg-612" value="" style="shape=partialRectangle;html=1;whiteSpace=wrap;connectable=0;strokeColor=inherit;overflow=hidden;fillColor=none;top=0;left=0;bottom=0;right=0;pointerEvents=1;" vertex="1" parent="Y5F9X7biOGbYKgVgGVMg-609">
          <mxGeometry x="49" width="26" height="22" as="geometry">
            <mxRectangle width="26" height="22" as="alternateBounds" />
          </mxGeometry>
        </mxCell>
        <mxCell id="Y5F9X7biOGbYKgVgGVMg-613" value="" style="shape=partialRectangle;html=1;whiteSpace=wrap;connectable=0;strokeColor=inherit;overflow=hidden;fillColor=none;top=0;left=0;bottom=0;right=0;pointerEvents=1;" vertex="1" parent="Y5F9X7biOGbYKgVgGVMg-609">
          <mxGeometry x="75" width="23" height="22" as="geometry">
            <mxRectangle width="23" height="22" as="alternateBounds" />
          </mxGeometry>
        </mxCell>
        <mxCell id="Y5F9X7biOGbYKgVgGVMg-614" value="" style="shape=tableRow;horizontal=0;startSize=0;swimlaneHead=0;swimlaneBody=0;strokeColor=inherit;top=0;left=0;bottom=0;right=0;collapsible=0;dropTarget=0;fillColor=none;points=[[0,0.5],[1,0.5]];portConstraint=eastwest;" vertex="1" parent="Y5F9X7biOGbYKgVgGVMg-578">
          <mxGeometry y="141" width="98" height="20" as="geometry" />
        </mxCell>
        <mxCell id="Y5F9X7biOGbYKgVgGVMg-615" value="" style="shape=partialRectangle;html=1;whiteSpace=wrap;connectable=0;strokeColor=inherit;overflow=hidden;fillColor=none;top=0;left=0;bottom=0;right=0;pointerEvents=1;" vertex="1" parent="Y5F9X7biOGbYKgVgGVMg-614">
          <mxGeometry width="26" height="20" as="geometry">
            <mxRectangle width="26" height="20" as="alternateBounds" />
          </mxGeometry>
        </mxCell>
        <mxCell id="Y5F9X7biOGbYKgVgGVMg-616" value="" style="shape=partialRectangle;html=1;whiteSpace=wrap;connectable=0;strokeColor=inherit;overflow=hidden;fillColor=none;top=0;left=0;bottom=0;right=0;pointerEvents=1;" vertex="1" parent="Y5F9X7biOGbYKgVgGVMg-614">
          <mxGeometry x="26" width="23" height="20" as="geometry">
            <mxRectangle width="23" height="20" as="alternateBounds" />
          </mxGeometry>
        </mxCell>
        <mxCell id="Y5F9X7biOGbYKgVgGVMg-617" value="" style="shape=partialRectangle;html=1;whiteSpace=wrap;connectable=0;strokeColor=inherit;overflow=hidden;fillColor=none;top=0;left=0;bottom=0;right=0;pointerEvents=1;" vertex="1" parent="Y5F9X7biOGbYKgVgGVMg-614">
          <mxGeometry x="49" width="26" height="20" as="geometry">
            <mxRectangle width="26" height="20" as="alternateBounds" />
          </mxGeometry>
        </mxCell>
        <mxCell id="Y5F9X7biOGbYKgVgGVMg-618" value="" style="shape=partialRectangle;html=1;whiteSpace=wrap;connectable=0;strokeColor=inherit;overflow=hidden;fillColor=none;top=0;left=0;bottom=0;right=0;pointerEvents=1;" vertex="1" parent="Y5F9X7biOGbYKgVgGVMg-614">
          <mxGeometry x="75" width="23" height="20" as="geometry">
            <mxRectangle width="23" height="20" as="alternateBounds" />
          </mxGeometry>
        </mxCell>
        <mxCell id="Y5F9X7biOGbYKgVgGVMg-619" value="" style="shape=tableRow;horizontal=0;startSize=0;swimlaneHead=0;swimlaneBody=0;strokeColor=inherit;top=0;left=0;bottom=0;right=0;collapsible=0;dropTarget=0;fillColor=none;points=[[0,0.5],[1,0.5]];portConstraint=eastwest;" vertex="1" parent="Y5F9X7biOGbYKgVgGVMg-578">
          <mxGeometry y="161" width="98" height="19" as="geometry" />
        </mxCell>
        <mxCell id="Y5F9X7biOGbYKgVgGVMg-620" value="" style="shape=partialRectangle;html=1;whiteSpace=wrap;connectable=0;strokeColor=inherit;overflow=hidden;fillColor=none;top=0;left=0;bottom=0;right=0;pointerEvents=1;" vertex="1" parent="Y5F9X7biOGbYKgVgGVMg-619">
          <mxGeometry width="26" height="19" as="geometry">
            <mxRectangle width="26" height="19" as="alternateBounds" />
          </mxGeometry>
        </mxCell>
        <mxCell id="Y5F9X7biOGbYKgVgGVMg-621" value="" style="shape=partialRectangle;html=1;whiteSpace=wrap;connectable=0;strokeColor=inherit;overflow=hidden;fillColor=none;top=0;left=0;bottom=0;right=0;pointerEvents=1;" vertex="1" parent="Y5F9X7biOGbYKgVgGVMg-619">
          <mxGeometry x="26" width="23" height="19" as="geometry">
            <mxRectangle width="23" height="19" as="alternateBounds" />
          </mxGeometry>
        </mxCell>
        <mxCell id="Y5F9X7biOGbYKgVgGVMg-622" value="" style="shape=partialRectangle;html=1;whiteSpace=wrap;connectable=0;strokeColor=inherit;overflow=hidden;fillColor=none;top=0;left=0;bottom=0;right=0;pointerEvents=1;" vertex="1" parent="Y5F9X7biOGbYKgVgGVMg-619">
          <mxGeometry x="49" width="26" height="19" as="geometry">
            <mxRectangle width="26" height="19" as="alternateBounds" />
          </mxGeometry>
        </mxCell>
        <mxCell id="Y5F9X7biOGbYKgVgGVMg-623" value="" style="shape=partialRectangle;html=1;whiteSpace=wrap;connectable=0;strokeColor=inherit;overflow=hidden;fillColor=none;top=0;left=0;bottom=0;right=0;pointerEvents=1;" vertex="1" parent="Y5F9X7biOGbYKgVgGVMg-619">
          <mxGeometry x="75" width="23" height="19" as="geometry">
            <mxRectangle width="23" height="19" as="alternateBounds" />
          </mxGeometry>
        </mxCell>
        <mxCell id="Y5F9X7biOGbYKgVgGVMg-624" value="" style="shape=tableRow;horizontal=0;startSize=0;swimlaneHead=0;swimlaneBody=0;strokeColor=inherit;top=0;left=0;bottom=0;right=0;collapsible=0;dropTarget=0;fillColor=none;points=[[0,0.5],[1,0.5]];portConstraint=eastwest;" vertex="1" parent="Y5F9X7biOGbYKgVgGVMg-578">
          <mxGeometry y="180" width="98" height="21" as="geometry" />
        </mxCell>
        <mxCell id="Y5F9X7biOGbYKgVgGVMg-625" value="" style="shape=partialRectangle;html=1;whiteSpace=wrap;connectable=0;strokeColor=inherit;overflow=hidden;fillColor=none;top=0;left=0;bottom=0;right=0;pointerEvents=1;" vertex="1" parent="Y5F9X7biOGbYKgVgGVMg-624">
          <mxGeometry width="26" height="21" as="geometry">
            <mxRectangle width="26" height="21" as="alternateBounds" />
          </mxGeometry>
        </mxCell>
        <mxCell id="Y5F9X7biOGbYKgVgGVMg-626" value="" style="shape=partialRectangle;html=1;whiteSpace=wrap;connectable=0;strokeColor=inherit;overflow=hidden;fillColor=none;top=0;left=0;bottom=0;right=0;pointerEvents=1;" vertex="1" parent="Y5F9X7biOGbYKgVgGVMg-624">
          <mxGeometry x="26" width="23" height="21" as="geometry">
            <mxRectangle width="23" height="21" as="alternateBounds" />
          </mxGeometry>
        </mxCell>
        <mxCell id="Y5F9X7biOGbYKgVgGVMg-627" value="" style="shape=partialRectangle;html=1;whiteSpace=wrap;connectable=0;strokeColor=inherit;overflow=hidden;fillColor=none;top=0;left=0;bottom=0;right=0;pointerEvents=1;" vertex="1" parent="Y5F9X7biOGbYKgVgGVMg-624">
          <mxGeometry x="49" width="26" height="21" as="geometry">
            <mxRectangle width="26" height="21" as="alternateBounds" />
          </mxGeometry>
        </mxCell>
        <mxCell id="Y5F9X7biOGbYKgVgGVMg-628" value="" style="shape=partialRectangle;html=1;whiteSpace=wrap;connectable=0;strokeColor=inherit;overflow=hidden;fillColor=none;top=0;left=0;bottom=0;right=0;pointerEvents=1;" vertex="1" parent="Y5F9X7biOGbYKgVgGVMg-624">
          <mxGeometry x="75" width="23" height="21" as="geometry">
            <mxRectangle width="23" height="21" as="alternateBounds" />
          </mxGeometry>
        </mxCell>
        <mxCell id="Y5F9X7biOGbYKgVgGVMg-629" value="" style="shape=tableRow;horizontal=0;startSize=0;swimlaneHead=0;swimlaneBody=0;strokeColor=inherit;top=0;left=0;bottom=0;right=0;collapsible=0;dropTarget=0;fillColor=none;points=[[0,0.5],[1,0.5]];portConstraint=eastwest;" vertex="1" parent="Y5F9X7biOGbYKgVgGVMg-578">
          <mxGeometry y="201" width="98" height="20" as="geometry" />
        </mxCell>
        <mxCell id="Y5F9X7biOGbYKgVgGVMg-630" value="" style="shape=partialRectangle;html=1;whiteSpace=wrap;connectable=0;strokeColor=inherit;overflow=hidden;fillColor=none;top=0;left=0;bottom=0;right=0;pointerEvents=1;" vertex="1" parent="Y5F9X7biOGbYKgVgGVMg-629">
          <mxGeometry width="26" height="20" as="geometry">
            <mxRectangle width="26" height="20" as="alternateBounds" />
          </mxGeometry>
        </mxCell>
        <mxCell id="Y5F9X7biOGbYKgVgGVMg-631" value="" style="shape=partialRectangle;html=1;whiteSpace=wrap;connectable=0;strokeColor=inherit;overflow=hidden;fillColor=none;top=0;left=0;bottom=0;right=0;pointerEvents=1;" vertex="1" parent="Y5F9X7biOGbYKgVgGVMg-629">
          <mxGeometry x="26" width="23" height="20" as="geometry">
            <mxRectangle width="23" height="20" as="alternateBounds" />
          </mxGeometry>
        </mxCell>
        <mxCell id="Y5F9X7biOGbYKgVgGVMg-632" value="" style="shape=partialRectangle;html=1;whiteSpace=wrap;connectable=0;strokeColor=inherit;overflow=hidden;fillColor=none;top=0;left=0;bottom=0;right=0;pointerEvents=1;" vertex="1" parent="Y5F9X7biOGbYKgVgGVMg-629">
          <mxGeometry x="49" width="26" height="20" as="geometry">
            <mxRectangle width="26" height="20" as="alternateBounds" />
          </mxGeometry>
        </mxCell>
        <mxCell id="Y5F9X7biOGbYKgVgGVMg-633" value="" style="shape=partialRectangle;html=1;whiteSpace=wrap;connectable=0;strokeColor=inherit;overflow=hidden;fillColor=none;top=0;left=0;bottom=0;right=0;pointerEvents=1;" vertex="1" parent="Y5F9X7biOGbYKgVgGVMg-629">
          <mxGeometry x="75" width="23" height="20" as="geometry">
            <mxRectangle width="23" height="20" as="alternateBounds" />
          </mxGeometry>
        </mxCell>
        <mxCell id="Y5F9X7biOGbYKgVgGVMg-634" value="" style="shape=tableRow;horizontal=0;startSize=0;swimlaneHead=0;swimlaneBody=0;strokeColor=inherit;top=0;left=0;bottom=0;right=0;collapsible=0;dropTarget=0;fillColor=none;points=[[0,0.5],[1,0.5]];portConstraint=eastwest;" vertex="1" parent="Y5F9X7biOGbYKgVgGVMg-578">
          <mxGeometry y="221" width="98" height="19" as="geometry" />
        </mxCell>
        <mxCell id="Y5F9X7biOGbYKgVgGVMg-635" value="" style="shape=partialRectangle;html=1;whiteSpace=wrap;connectable=0;strokeColor=inherit;overflow=hidden;fillColor=none;top=0;left=0;bottom=0;right=0;pointerEvents=1;" vertex="1" parent="Y5F9X7biOGbYKgVgGVMg-634">
          <mxGeometry width="26" height="19" as="geometry">
            <mxRectangle width="26" height="19" as="alternateBounds" />
          </mxGeometry>
        </mxCell>
        <mxCell id="Y5F9X7biOGbYKgVgGVMg-636" value="" style="shape=partialRectangle;html=1;whiteSpace=wrap;connectable=0;strokeColor=inherit;overflow=hidden;fillColor=none;top=0;left=0;bottom=0;right=0;pointerEvents=1;" vertex="1" parent="Y5F9X7biOGbYKgVgGVMg-634">
          <mxGeometry x="26" width="23" height="19" as="geometry">
            <mxRectangle width="23" height="19" as="alternateBounds" />
          </mxGeometry>
        </mxCell>
        <mxCell id="Y5F9X7biOGbYKgVgGVMg-637" value="" style="shape=partialRectangle;html=1;whiteSpace=wrap;connectable=0;strokeColor=inherit;overflow=hidden;fillColor=none;top=0;left=0;bottom=0;right=0;pointerEvents=1;" vertex="1" parent="Y5F9X7biOGbYKgVgGVMg-634">
          <mxGeometry x="49" width="26" height="19" as="geometry">
            <mxRectangle width="26" height="19" as="alternateBounds" />
          </mxGeometry>
        </mxCell>
        <mxCell id="Y5F9X7biOGbYKgVgGVMg-638" value="" style="shape=partialRectangle;html=1;whiteSpace=wrap;connectable=0;strokeColor=inherit;overflow=hidden;fillColor=none;top=0;left=0;bottom=0;right=0;pointerEvents=1;" vertex="1" parent="Y5F9X7biOGbYKgVgGVMg-634">
          <mxGeometry x="75" width="23" height="19" as="geometry">
            <mxRectangle width="23" height="19" as="alternateBounds" />
          </mxGeometry>
        </mxCell>
        <mxCell id="Y5F9X7biOGbYKgVgGVMg-639" value="" style="shape=tableRow;horizontal=0;startSize=0;swimlaneHead=0;swimlaneBody=0;strokeColor=inherit;top=0;left=0;bottom=0;right=0;collapsible=0;dropTarget=0;fillColor=none;points=[[0,0.5],[1,0.5]];portConstraint=eastwest;" vertex="1" parent="Y5F9X7biOGbYKgVgGVMg-578">
          <mxGeometry y="240" width="98" height="20" as="geometry" />
        </mxCell>
        <mxCell id="Y5F9X7biOGbYKgVgGVMg-640" value="" style="shape=partialRectangle;html=1;whiteSpace=wrap;connectable=0;strokeColor=inherit;overflow=hidden;fillColor=none;top=0;left=0;bottom=0;right=0;pointerEvents=1;" vertex="1" parent="Y5F9X7biOGbYKgVgGVMg-639">
          <mxGeometry width="26" height="20" as="geometry">
            <mxRectangle width="26" height="20" as="alternateBounds" />
          </mxGeometry>
        </mxCell>
        <mxCell id="Y5F9X7biOGbYKgVgGVMg-641" value="" style="shape=partialRectangle;html=1;whiteSpace=wrap;connectable=0;strokeColor=inherit;overflow=hidden;fillColor=none;top=0;left=0;bottom=0;right=0;pointerEvents=1;" vertex="1" parent="Y5F9X7biOGbYKgVgGVMg-639">
          <mxGeometry x="26" width="23" height="20" as="geometry">
            <mxRectangle width="23" height="20" as="alternateBounds" />
          </mxGeometry>
        </mxCell>
        <mxCell id="Y5F9X7biOGbYKgVgGVMg-642" value="" style="shape=partialRectangle;html=1;whiteSpace=wrap;connectable=0;strokeColor=inherit;overflow=hidden;fillColor=none;top=0;left=0;bottom=0;right=0;pointerEvents=1;" vertex="1" parent="Y5F9X7biOGbYKgVgGVMg-639">
          <mxGeometry x="49" width="26" height="20" as="geometry">
            <mxRectangle width="26" height="20" as="alternateBounds" />
          </mxGeometry>
        </mxCell>
        <mxCell id="Y5F9X7biOGbYKgVgGVMg-643" value="" style="shape=partialRectangle;html=1;whiteSpace=wrap;connectable=0;strokeColor=inherit;overflow=hidden;fillColor=none;top=0;left=0;bottom=0;right=0;pointerEvents=1;" vertex="1" parent="Y5F9X7biOGbYKgVgGVMg-639">
          <mxGeometry x="75" width="23" height="20" as="geometry">
            <mxRectangle width="23" height="20" as="alternateBounds" />
          </mxGeometry>
        </mxCell>
        <mxCell id="Y5F9X7biOGbYKgVgGVMg-645" value="" style="line;strokeWidth=1;direction=south;html=1;dashed=1;dashPattern=1 1;" vertex="1" parent="1">
          <mxGeometry x="918" y="89" width="10" height="222" as="geometry" />
        </mxCell>
        <mxCell id="Y5F9X7biOGbYKgVgGVMg-646" value="" style="line;strokeWidth=1;html=1;dashed=1;dashPattern=1 1;" vertex="1" parent="1">
          <mxGeometry x="923" y="84" width="9" height="10" as="geometry" />
        </mxCell>
        <mxCell id="Y5F9X7biOGbYKgVgGVMg-647" value="" style="line;strokeWidth=1;html=1;dashed=1;dashPattern=1 1;" vertex="1" parent="1">
          <mxGeometry x="923" y="105" width="9" height="10" as="geometry" />
        </mxCell>
        <mxCell id="Y5F9X7biOGbYKgVgGVMg-648" value="" style="line;strokeWidth=1;html=1;dashed=1;dashPattern=1 1;" vertex="1" parent="1">
          <mxGeometry x="923" y="126" width="9" height="10" as="geometry" />
        </mxCell>
        <mxCell id="Y5F9X7biOGbYKgVgGVMg-649" value="" style="line;strokeWidth=1;html=1;dashed=1;dashPattern=1 1;" vertex="1" parent="1">
          <mxGeometry x="923" y="146" width="9" height="10" as="geometry" />
        </mxCell>
        <mxCell id="Y5F9X7biOGbYKgVgGVMg-650" value="" style="line;strokeWidth=1;html=1;dashed=1;dashPattern=1 1;" vertex="1" parent="1">
          <mxGeometry x="923" y="165" width="9" height="10" as="geometry" />
        </mxCell>
        <mxCell id="Y5F9X7biOGbYKgVgGVMg-651" value="" style="line;strokeWidth=1;html=1;dashed=1;dashPattern=1 1;" vertex="1" parent="1">
          <mxGeometry x="923" y="186" width="9" height="10" as="geometry" />
        </mxCell>
        <mxCell id="Y5F9X7biOGbYKgVgGVMg-652" value="" style="line;strokeWidth=1;html=1;dashed=1;dashPattern=1 1;" vertex="1" parent="1">
          <mxGeometry x="923" y="207" width="9" height="10" as="geometry" />
        </mxCell>
        <mxCell id="Y5F9X7biOGbYKgVgGVMg-653" value="" style="line;strokeWidth=1;html=1;dashed=1;dashPattern=1 1;" vertex="1" parent="1">
          <mxGeometry x="923" y="226" width="9" height="10" as="geometry" />
        </mxCell>
        <mxCell id="Y5F9X7biOGbYKgVgGVMg-654" value="" style="line;strokeWidth=1;html=1;dashed=1;dashPattern=1 1;" vertex="1" parent="1">
          <mxGeometry x="923" y="246" width="9" height="10" as="geometry" />
        </mxCell>
        <mxCell id="Y5F9X7biOGbYKgVgGVMg-655" value="" style="line;strokeWidth=1;html=1;dashed=1;dashPattern=1 1;" vertex="1" parent="1">
          <mxGeometry x="923" y="266" width="9" height="10" as="geometry" />
        </mxCell>
        <mxCell id="Y5F9X7biOGbYKgVgGVMg-656" value="" style="line;strokeWidth=1;html=1;dashed=1;dashPattern=1 1;" vertex="1" parent="1">
          <mxGeometry x="923" y="286" width="9" height="10" as="geometry" />
        </mxCell>
        <mxCell id="Y5F9X7biOGbYKgVgGVMg-657" value="" style="line;strokeWidth=1;html=1;dashed=1;dashPattern=1 1;" vertex="1" parent="1">
          <mxGeometry x="922.5" y="306" width="10" height="10" as="geometry" />
        </mxCell>
        <mxCell id="Y5F9X7biOGbYKgVgGVMg-658" value="" style="ellipse;whiteSpace=wrap;html=1;aspect=fixed;fillColor=#000000;" vertex="1" parent="1">
          <mxGeometry x="931" y="87" width="4" height="4" as="geometry" />
        </mxCell>
        <mxCell id="Y5F9X7biOGbYKgVgGVMg-659" value="" style="ellipse;whiteSpace=wrap;html=1;aspect=fixed;fillColor=#000000;" vertex="1" parent="1">
          <mxGeometry x="931" y="108" width="4" height="4" as="geometry" />
        </mxCell>
        <mxCell id="Y5F9X7biOGbYKgVgGVMg-660" value="" style="ellipse;whiteSpace=wrap;html=1;aspect=fixed;fillColor=#000000;" vertex="1" parent="1">
          <mxGeometry x="931" y="129" width="4" height="4" as="geometry" />
        </mxCell>
        <mxCell id="Y5F9X7biOGbYKgVgGVMg-661" value="" style="ellipse;whiteSpace=wrap;html=1;aspect=fixed;fillColor=#000000;" vertex="1" parent="1">
          <mxGeometry x="931" y="149" width="4" height="4" as="geometry" />
        </mxCell>
        <mxCell id="Y5F9X7biOGbYKgVgGVMg-662" value="" style="ellipse;whiteSpace=wrap;html=1;aspect=fixed;fillColor=#000000;" vertex="1" parent="1">
          <mxGeometry x="931" y="168" width="4" height="4" as="geometry" />
        </mxCell>
        <mxCell id="Y5F9X7biOGbYKgVgGVMg-663" value="" style="ellipse;whiteSpace=wrap;html=1;aspect=fixed;fillColor=#000000;" vertex="1" parent="1">
          <mxGeometry x="931" y="189" width="4" height="4" as="geometry" />
        </mxCell>
        <mxCell id="Y5F9X7biOGbYKgVgGVMg-664" value="" style="ellipse;whiteSpace=wrap;html=1;aspect=fixed;fillColor=#000000;" vertex="1" parent="1">
          <mxGeometry x="931" y="210" width="4" height="4" as="geometry" />
        </mxCell>
        <mxCell id="Y5F9X7biOGbYKgVgGVMg-665" value="" style="ellipse;whiteSpace=wrap;html=1;aspect=fixed;fillColor=#000000;" vertex="1" parent="1">
          <mxGeometry x="931" y="229" width="4" height="4" as="geometry" />
        </mxCell>
        <mxCell id="Y5F9X7biOGbYKgVgGVMg-666" value="" style="ellipse;whiteSpace=wrap;html=1;aspect=fixed;fillColor=#000000;" vertex="1" parent="1">
          <mxGeometry x="931" y="249" width="4" height="4" as="geometry" />
        </mxCell>
        <mxCell id="Y5F9X7biOGbYKgVgGVMg-667" value="" style="ellipse;whiteSpace=wrap;html=1;aspect=fixed;fillColor=#000000;" vertex="1" parent="1">
          <mxGeometry x="931" y="269" width="4" height="4" as="geometry" />
        </mxCell>
        <mxCell id="Y5F9X7biOGbYKgVgGVMg-668" value="" style="ellipse;whiteSpace=wrap;html=1;aspect=fixed;fillColor=#000000;" vertex="1" parent="1">
          <mxGeometry x="931" y="289" width="4" height="4" as="geometry" />
        </mxCell>
        <mxCell id="Y5F9X7biOGbYKgVgGVMg-669" value="" style="ellipse;whiteSpace=wrap;html=1;aspect=fixed;fillColor=#000000;" vertex="1" parent="1">
          <mxGeometry x="931" y="309" width="4" height="4" as="geometry" />
        </mxCell>
        <mxCell id="Y5F9X7biOGbYKgVgGVMg-670" value="" style="line;strokeWidth=1;html=1;dashed=1;dashPattern=1 1;" vertex="1" parent="1">
          <mxGeometry x="914" y="91" width="9" height="10" as="geometry" />
        </mxCell>
        <mxCell id="Y5F9X7biOGbYKgVgGVMg-671" value="" style="ellipse;whiteSpace=wrap;html=1;aspect=fixed;fillColor=#000000;" vertex="1" parent="1">
          <mxGeometry x="913" y="94" width="4" height="4" as="geometry" />
        </mxCell>
        <mxCell id="Y5F9X7biOGbYKgVgGVMg-672" value="&lt;b&gt;&lt;font face=&quot;Comic Sans MS&quot; style=&quot;font-size: 10px;&quot;&gt;Policy Reg&lt;/font&gt;&lt;/b&gt;" style="rounded=0;whiteSpace=wrap;html=1;" vertex="1" parent="1">
          <mxGeometry x="909" y="321" width="94" height="20" as="geometry" />
        </mxCell>
        <mxCell id="Y5F9X7biOGbYKgVgGVMg-678" value="" style="endArrow=none;html=1;rounded=0;dashed=1;dashPattern=1 1;" edge="1" parent="1">
          <mxGeometry width="50" height="50" relative="1" as="geometry">
            <mxPoint x="915" y="327" as="sourcePoint" />
            <mxPoint x="915" y="117" as="targetPoint" />
          </mxGeometry>
        </mxCell>
        <mxCell id="Y5F9X7biOGbYKgVgGVMg-679" value="" style="ellipse;whiteSpace=wrap;html=1;aspect=fixed;fillColor=#000000;" vertex="1" parent="1">
          <mxGeometry x="913" y="114" width="4" height="4" as="geometry" />
        </mxCell>
        <mxCell id="Y5F9X7biOGbYKgVgGVMg-680" value="" style="ellipse;whiteSpace=wrap;html=1;aspect=fixed;fillColor=#000000;" vertex="1" parent="1">
          <mxGeometry x="913" y="325" width="4" height="4" as="geometry" />
        </mxCell>
        <mxCell id="Y5F9X7biOGbYKgVgGVMg-684" value="Stage&lt;div&gt;Script Config&lt;/div&gt;&lt;div&gt;&lt;br&gt;&lt;/div&gt;" style="text;html=1;align=center;verticalAlign=middle;whiteSpace=wrap;rounded=0;fontStyle=1;fontSize=8;" vertex="1" parent="1">
          <mxGeometry x="879.13" y="32" width="43.87" height="30" as="geometry" />
        </mxCell>
        <mxCell id="Y5F9X7biOGbYKgVgGVMg-685" value="Output&lt;div&gt;Policy Config&lt;/div&gt;&lt;div&gt;&lt;br&gt;&lt;/div&gt;" style="text;html=1;align=center;verticalAlign=middle;whiteSpace=wrap;rounded=0;fontStyle=1;fontSize=8;" vertex="1" parent="1">
          <mxGeometry x="851" y="32" width="38" height="30" as="geometry" />
        </mxCell>
        <mxCell id="Y5F9X7biOGbYKgVgGVMg-697" value="" style="rounded=1;whiteSpace=wrap;html=1;strokeWidth=1;fillWeight=4;hachureGap=8;hachureAngle=45;fillColor=#1ba1e2;sketch=1;" vertex="1" parent="1">
          <mxGeometry x="1183" y="121" width="21" height="20" as="geometry" />
        </mxCell>
        <mxCell id="Y5F9X7biOGbYKgVgGVMg-698" value="" style="rounded=1;whiteSpace=wrap;html=1;strokeWidth=1;fillWeight=4;hachureGap=8;hachureAngle=45;fillColor=#1ba1e2;sketch=1;" vertex="1" parent="1">
          <mxGeometry x="1183" y="101" width="21" height="20" as="geometry" />
        </mxCell>
        <mxCell id="Y5F9X7biOGbYKgVgGVMg-699" value="" style="rounded=1;whiteSpace=wrap;html=1;strokeWidth=1;fillWeight=4;hachureGap=8;hachureAngle=45;fillColor=#1ba1e2;sketch=1;" vertex="1" parent="1">
          <mxGeometry x="1183.5" y="81" width="21" height="20" as="geometry" />
        </mxCell>
        <mxCell id="Y5F9X7biOGbYKgVgGVMg-700" value="" style="rounded=1;whiteSpace=wrap;html=1;strokeWidth=1;fillWeight=4;hachureGap=8;hachureAngle=45;fillColor=#1ba1e2;sketch=1;" vertex="1" parent="1">
          <mxGeometry x="1183.5" y="141" width="21" height="20" as="geometry" />
        </mxCell>
        <mxCell id="Y5F9X7biOGbYKgVgGVMg-701" value="" style="rounded=1;whiteSpace=wrap;html=1;strokeWidth=1;fillWeight=4;hachureGap=8;hachureAngle=45;fillColor=#1BA1E2;sketch=1;" vertex="1" parent="1">
          <mxGeometry x="1205.5" y="221" width="23" height="20" as="geometry" />
        </mxCell>
        <mxCell id="Y5F9X7biOGbYKgVgGVMg-702" value="" style="rounded=1;whiteSpace=wrap;html=1;strokeWidth=1;fillWeight=4;hachureGap=8;hachureAngle=45;fillColor=#1ba1e2;sketch=1;" vertex="1" parent="1">
          <mxGeometry x="1205.5" y="241" width="23" height="20" as="geometry" />
        </mxCell>
        <mxCell id="Y5F9X7biOGbYKgVgGVMg-703" value="" style="rounded=1;whiteSpace=wrap;html=1;strokeWidth=1;fillWeight=4;hachureGap=8;hachureAngle=45;fillColor=#1ba1e2;sketch=1;" vertex="1" parent="1">
          <mxGeometry x="1205.5" y="261" width="23" height="20" as="geometry" />
        </mxCell>
        <mxCell id="Y5F9X7biOGbYKgVgGVMg-704" value="" style="rounded=1;whiteSpace=wrap;html=1;strokeWidth=1;fillWeight=4;hachureGap=8;hachureAngle=45;fillColor=#1ba1e2;sketch=1;" vertex="1" parent="1">
          <mxGeometry x="1205.5" y="281" width="23" height="20" as="geometry" />
        </mxCell>
        <mxCell id="Y5F9X7biOGbYKgVgGVMg-705" value="" style="rounded=1;whiteSpace=wrap;html=1;strokeWidth=1;fillWeight=4;hachureGap=8;hachureAngle=45;fillColor=#1ba1e2;sketch=1;" vertex="1" parent="1">
          <mxGeometry x="1205.5" y="301" width="23" height="20" as="geometry" />
        </mxCell>
        <mxCell id="Y5F9X7biOGbYKgVgGVMg-706" value="" style="rounded=1;whiteSpace=wrap;html=1;strokeWidth=1;fillWeight=4;hachureGap=8;hachureAngle=45;fillColor=#1ba1e2;sketch=1;" vertex="1" parent="1">
          <mxGeometry x="1160" y="181" width="22" height="20" as="geometry" />
        </mxCell>
        <mxCell id="Y5F9X7biOGbYKgVgGVMg-707" value="" style="rounded=1;whiteSpace=wrap;html=1;strokeWidth=1;fillWeight=4;hachureGap=8;hachureAngle=45;fillColor=#1ba1e2;sketch=1;" vertex="1" parent="1">
          <mxGeometry x="1160" y="201" width="22.5" height="20" as="geometry" />
        </mxCell>
        <mxCell id="Y5F9X7biOGbYKgVgGVMg-708" value="" style="rounded=1;whiteSpace=wrap;html=1;strokeWidth=1;fillWeight=4;hachureGap=8;hachureAngle=45;fillColor=#1ba1e2;sketch=1;" vertex="1" parent="1">
          <mxGeometry x="1160" y="221" width="22.5" height="20" as="geometry" />
        </mxCell>
        <mxCell id="Y5F9X7biOGbYKgVgGVMg-709" value="" style="rounded=1;whiteSpace=wrap;html=1;strokeWidth=1;fillWeight=4;hachureGap=8;hachureAngle=45;fillColor=#1ba1e2;sketch=1;" vertex="1" parent="1">
          <mxGeometry x="1160" y="241" width="22.5" height="20" as="geometry" />
        </mxCell>
        <mxCell id="Y5F9X7biOGbYKgVgGVMg-710" value="&lt;font style=&quot;font-size: 10px;&quot;&gt;&amp;nbsp; &amp;nbsp;0&amp;nbsp; &amp;nbsp; &amp;nbsp; 1&amp;nbsp; &amp;nbsp; &amp;nbsp; 0&lt;/font&gt;" style="text;strokeColor=none;fillColor=none;html=1;fontSize=24;fontStyle=1;verticalAlign=middle;align=center;" vertex="1" parent="1">
          <mxGeometry x="1140" y="6" width="100" height="40" as="geometry" />
        </mxCell>
        <mxCell id="Y5F9X7biOGbYKgVgGVMg-711" value="&lt;font style=&quot;font-size: 10px;&quot;&gt;&amp;nbsp; &amp;nbsp;0&amp;nbsp; &amp;nbsp; &amp;nbsp; 0&amp;nbsp; &amp;nbsp; &amp;nbsp; 1&lt;/font&gt;" style="text;strokeColor=none;fillColor=none;html=1;fontSize=24;fontStyle=1;verticalAlign=middle;align=center;" vertex="1" parent="1">
          <mxGeometry x="1140" y="349" width="100" height="40" as="geometry" />
        </mxCell>
        <mxCell id="Y5F9X7biOGbYKgVgGVMg-712" value="" style="endArrow=none;dashed=1;html=1;rounded=0;strokeColor=#ABABAB;endSize=14;jumpSize=14;" edge="1" parent="1">
          <mxGeometry width="50" height="50" relative="1" as="geometry">
            <mxPoint x="886.14" y="71" as="sourcePoint" />
            <mxPoint x="886" y="21" as="targetPoint" />
          </mxGeometry>
        </mxCell>
        <mxCell id="Y5F9X7biOGbYKgVgGVMg-714" value="" style="ellipse;html=1;shape=endState;fillColor=#000000;strokeColor=#009900;" vertex="1" parent="1">
          <mxGeometry x="1211" y="41" width="12" height="12" as="geometry" />
        </mxCell>
        <mxCell id="Y5F9X7biOGbYKgVgGVMg-716" value="" style="ellipse;html=1;shape=endState;fillColor=#000000;strokeColor=#009900;" vertex="1" parent="1">
          <mxGeometry x="1188" y="41" width="12" height="12" as="geometry" />
        </mxCell>
        <mxCell id="Y5F9X7biOGbYKgVgGVMg-717" value="" style="ellipse;html=1;shape=endState;fillColor=#000000;strokeColor=#009900;" vertex="1" parent="1">
          <mxGeometry x="1165.25" y="41" width="12" height="12" as="geometry" />
        </mxCell>
        <mxCell id="Y5F9X7biOGbYKgVgGVMg-718" value="" style="endArrow=none;html=1;rounded=0;" edge="1" parent="1">
          <mxGeometry width="50" height="50" relative="1" as="geometry">
            <mxPoint x="865" y="84" as="sourcePoint" />
            <mxPoint x="875" y="74" as="targetPoint" />
            <Array as="points">
              <mxPoint x="875" y="74" />
            </Array>
          </mxGeometry>
        </mxCell>
        <mxCell id="Y5F9X7biOGbYKgVgGVMg-722" value="" style="endArrow=none;html=1;rounded=0;" edge="1" parent="1">
          <mxGeometry width="50" height="50" relative="1" as="geometry">
            <mxPoint x="889" y="84" as="sourcePoint" />
            <mxPoint x="899" y="74" as="targetPoint" />
            <Array as="points">
              <mxPoint x="899" y="74" />
            </Array>
          </mxGeometry>
        </mxCell>
      </root>
    </mxGraphModel>
  </diagram>
</mxfile>
